<?xml version="1.0" encoding="UTF-8"?>
<svg width="46px" height="43px" viewBox="0 0 46 43" version="1.1" xmlns="http://www.w3.org/2000/svg" xmlns:xlink="http://www.w3.org/1999/xlink">
    <!-- Generator: Sketch 45.1 (43504) - http://www.bohemiancoding.com/sketch -->
    <title>const-star - icomoon</title>
    <desc>Created with Sketch.</desc>
    <defs></defs>
    <g id="Page-1" stroke="none" stroke-width="1" fill="none" fill-rule="evenodd">
        <g id="Email-template" transform="translate(-42.000000, -495.000000)" fill-rule="nonzero" fill="#FFCB3A">
            <path d="M63.2205393,495.731302 L66.7794607,495.731302 L72.6581783,507.97863 L86.1764574,509.790863 L87.3036611,513.172474 L77.4057909,522.531351 L79.8548709,535.95231 L77.002998,538.0318 L65,531.564879 L52.997002,538.0318 L50.1451291,535.95231 L52.5942091,522.531351 L42.6963389,513.172474 L43.8235426,509.790863 L57.3418217,507.97863 L63.2205393,495.731302 Z M56.4019884,520.3698 L56.9700942,522.074117 L55.1335334,532.063216 L64.0923742,527.225442 L65.9076258,527.225442 L74.8664666,532.063216 L73.0299058,522.074117 L73.5980116,520.3698 L80.9438671,513.337487 L70.8691594,511.994192 L69.3913408,510.971087 L64.9977123,501.780334 L60.5611028,510.967253 L59.1356966,511.993545 L49.0561329,513.337487 L56.4019884,520.3698 Z" id="const-star---icomoon"></path>
        </g>
    </g>
</svg>