<?xml version="1.0" encoding="UTF-8"?>
<svg width="46px" height="40px" viewBox="0 0 46 40" version="1.1" xmlns="http://www.w3.org/2000/svg" xmlns:xlink="http://www.w3.org/1999/xlink">
    <!-- Generator: Sketch 45.1 (43504) - http://www.bohemiancoding.com/sketch -->
    <title>tv_service-hd - icomoon</title>
    <desc>Created with Sketch.</desc>
    <defs></defs>
    <g id="Page-1" stroke="none" stroke-width="1" fill="none" fill-rule="evenodd">
        <g id="Email-template" transform="translate(-328.000000, -497.000000)" fill="#FFCB3A">
            <path d="M373.705078,527.505859 L353.734375,527.505859 L353.734375,532.779297 L360.472656,532.779297 L360.472656,536.685547 L341.917969,536.685547 L341.917969,532.779297 L348.460938,532.779297 L348.460938,527.505859 L328.636719,527.505859 L328.636719,497.134766 L373.705078,497.134766 L373.705078,527.505859 Z M332.542969,500.992188 L332.542969,523.599609 L369.652344,523.599609 L369.652344,500.992188 L332.542969,500.992188 Z M346.654297,510.171875 L347.728516,504.898438 L351.439453,504.898438 L348.460938,519.546875 L344.75,519.546875 L345.970703,514.273438 L341.380859,514.273438 L340.306641,519.546875 L336.791016,519.546875 L339.623047,504.898438 L343.333984,504.898438 L342.259766,510.171875 L346.654297,510.171875 Z M364.671875,507.193359 C364.867188,507.453777 365.013671,507.722329 365.111328,507.999023 C365.208985,508.275718 365.30664,508.593097 365.404297,508.951172 C365.501954,509.309247 365.558919,509.667316 365.575195,510.025391 C365.591471,510.383465 365.599609,510.725259 365.599609,511.050781 C365.599609,511.864587 365.51823,512.621416 365.355469,513.321289 C365.192708,514.021162 364.964845,514.680335 364.671875,515.298828 C364.411457,515.917321 364.110353,516.486977 363.768555,517.007812 C363.426756,517.528648 363.027997,517.968097 362.572266,518.326172 C362.214191,518.58659 361.815432,518.830728 361.375977,519.058594 C360.936521,519.286459 360.456383,519.449218 359.935547,519.546875 C359.577472,519.644532 359.170575,519.701497 358.714844,519.717773 C358.259112,519.73405 357.722008,519.742188 357.103516,519.742188 L351.634766,519.742188 L354.613281,504.703125 L360.619141,504.703125 C360.879559,504.703125 361.148111,504.743815 361.424805,504.825195 C361.701499,504.906576 361.970051,504.979817 362.230469,505.044922 C362.490887,505.142579 362.726887,505.272786 362.938477,505.435547 C363.150066,505.598308 363.386066,505.761067 363.646484,505.923828 C363.809246,506.119142 363.980142,506.314452 364.15918,506.509766 C364.338217,506.705079 364.509114,506.932941 364.671875,507.193359 Z M361.15625,513.882812 C361.319011,513.459633 361.449218,513.012047 361.546875,512.540039 C361.644532,512.068031 361.693359,511.52279 361.693359,510.904297 C361.693359,510.448565 361.65267,510.049806 361.571289,509.708008 C361.489908,509.366209 361.416667,509.04883 361.351562,508.755859 C361.156249,508.593098 361.001628,508.430339 360.887695,508.267578 C360.773762,508.104817 360.635417,507.97461 360.472656,507.876953 C360.375,507.811849 360.195965,507.771159 359.935547,507.754883 C359.675129,507.738607 359.31706,507.730469 358.861328,507.730469 L357.640625,507.730469 L355.882812,516.568359 L356.761719,516.568359 C357.282555,516.633464 357.722003,516.666016 358.080078,516.666016 C358.438153,516.666016 358.698567,516.633464 358.861328,516.568359 C359.024089,516.470703 359.194986,516.373047 359.374023,516.275391 C359.553061,516.177734 359.740233,516.031251 359.935547,515.835938 C360.195965,515.57552 360.423827,515.29883 360.619141,515.005859 C360.814454,514.712889 360.993489,514.338544 361.15625,513.882812 Z" id="tv_service-hd---icomoon"></path>
        </g>
    </g>
</svg>