<?xml version="1.0" encoding="UTF-8"?>
<svg width="46px" height="36px" viewBox="0 0 46 36" version="1.1" xmlns="http://www.w3.org/2000/svg" xmlns:xlink="http://www.w3.org/1999/xlink">
    <!-- Generator: Sketch 45.1 (43504) - http://www.bohemiancoding.com/sketch -->
    <title>package_service-tv_portal - icomoon</title>
    <desc>Created with Sketch.</desc>
    <defs></defs>
    <g id="Page-1" stroke="none" stroke-width="1" fill="none" fill-rule="evenodd">
        <g id="Email-template" transform="translate(-620.000000, -501.000000)" fill="#FFCB3A">
            <path d="M665.705078,501.308594 L665.705078,536.511719 L620.636719,536.511719 L620.636719,501.308594 L665.705078,501.308594 Z M629.816406,532.458984 L629.816406,520.863281 L624.542969,520.863281 L624.542969,532.458984 L629.816406,532.458984 Z M629.816406,516.957031 L629.816406,505.361328 L624.542969,505.361328 L624.542969,516.957031 L629.816406,516.957031 Z M652.277344,532.458984 L652.277344,505.361328 L633.722656,505.361328 L633.722656,532.458984 L652.277344,532.458984 Z M661.652344,532.458984 L661.652344,520.863281 L656.330078,520.863281 L656.330078,532.458984 L661.652344,532.458984 Z M661.652344,516.957031 L661.652344,505.361328 L656.330078,505.361328 L656.330078,516.957031 L661.652344,516.957031 Z M639.044922,512.708984 L648.908203,518.910156 L639.044922,525.0625 L639.044922,512.708984 Z" id="package_service-tv_portal---icomoon"></path>
        </g>
    </g>
</svg>